<svg width="202" height="159" viewBox="0 0 202 159" fill="none" xmlns="http://www.w3.org/2000/svg">
<g id="Vector">
<path fill-rule="evenodd" clip-rule="evenodd" d="M81.6829 2.83399C95.1538 -1.39887 111.168 -1.32612 123.204 6.0476C135.208 13.4011 134.397 31.9662 144.767 41.4796C161.59 56.9135 196.181 55.6437 201.453 77.8362C206.177 97.7261 179.167 111.181 164.778 125.726C153.278 137.351 141.517 149.439 125.872 154.238C111.515 158.642 96.6919 150.634 81.6829 151.214C65.8687 151.825 50.5207 162.624 35.4725 157.732C19.9076 152.672 3.08791 140.848 0.280358 124.75C-2.7197 107.548 19.2971 95.153 21.5386 77.8362C23.3498 63.844 4.04494 49.3708 11.5826 37.4361C19.2486 25.2982 40.0477 34.4886 52.9327 28.1284C64.5821 22.3782 69.2867 6.72913 81.6829 2.83399Z" fill="#E1F7EE"/>
<path d="M110.333 129.667C110.333 134.8 106.133 139 101 139C95.8667 139 91.6667 134.8 91.6667 129.667C91.6667 124.533 95.8667 120.333 101 120.333C106.133 120.333 110.333 124.533 110.333 129.667ZM51.2067 73.9933C49.48 75.5333 47.8 77.2133 46.2133 78.8933C44.44 80.76 44.58 83.7467 46.4467 85.4733C47.3333 86.3133 48.5 86.7333 49.62 86.7333C50.88 86.7333 52.14 86.22 53.0267 85.24C54.4267 83.7467 55.8733 82.3 57.3667 80.9467C59.28 79.22 59.4667 76.28 57.74 74.3667C56.0133 72.4533 53.0733 72.2667 51.16 73.9933H51.2067ZM74.7733 96.58C72.9067 98.0267 71.18 99.6133 69.5933 101.34C67.82 103.253 67.96 106.193 69.8267 107.92C70.7133 108.76 71.88 109.18 73 109.18C74.26 109.18 75.52 108.667 76.4067 107.687C77.6667 106.333 79.02 105.073 80.4667 103.953C82.52 102.367 82.8933 99.4267 81.3067 97.42C79.72 95.3667 76.78 94.9933 74.7733 96.58ZM108.42 97.7933C114.907 99.2867 120.927 102.74 125.5 107.64C126.433 108.62 127.647 109.133 128.907 109.133C130.027 109.133 131.193 108.713 132.08 107.873C133.947 106.1 134.087 103.16 132.313 101.293C123.727 92.0067 111.127 87.0133 98.62 87.6667C98.5267 87.6667 98.3867 87.6667 98.2933 87.6667L78.7867 68.2067C85.88 65.64 93.3467 64.3333 101 64.3333C119.107 64.3333 136.56 71.94 148.927 85.24C149.86 86.22 151.073 86.7333 152.333 86.7333C153.453 86.7333 154.62 86.3133 155.507 85.4733C157.373 83.7 157.513 80.76 155.74 78.8933C141.647 63.7267 121.673 55 101 55C90.78 55 80.8867 57.0067 71.6 61.02L52.98 42.3533C51.16 40.5333 48.1733 40.5333 46.3533 42.3533C44.5333 44.1733 44.5333 47.16 46.3533 48.98L149.02 151.647C149.953 152.58 151.12 153 152.333 153C153.547 153 154.713 152.533 155.647 151.647C157.467 149.827 157.467 146.887 155.647 145.067L108.42 97.7933Z" fill="#58B58D"/>
</g>
</svg>
